<svg xmlns="http://www.w3.org/2000/svg" xmlns:xlink="http://www.w3.org/1999/xlink" height="426" width="311.49242447908546">
  <g transform="translate(0.4924244790854573, 0)" opacity="1">
    <g transform="translate(82, 0)" opacity="1">
      <g transform="translate(54, 31)" opacity="1">
        <g opacity="1">
          <path fill="rgb(236,198,163)" fill-opacity="1" opacity="1" fill-rule="evenodd" d="M38.143341064453125 9.133933067321777C43.93815231323242 19.935054779052734 43.249576568603516 47.3329963684082 35.76029968261719 49.263458251953125C32.77358627319336 50.0333251953125 26.41100311279297 48.147464752197266 19.93537712097168 44.24431228637695L24 73L0 73L8.262273788452148 34.49012756347656C3.6543643474578857 29.081377029418945 0.5356347560882568 22.452877044677734 1.0567762851715088 15.025453567504883C2.5583300590515137 -6.375020503997803 32.34852981567383 -1.6671888828277588 38.143341064453125 9.133933067321777Z"/>
        </g>
      </g>
      <g opacity="1">
        <path fill="rgb(134,103,65)" fill-opacity="1" opacity="1" fill-rule="evenodd" d="M82.66349505034955 28.36997630965284C79.38405343731299 27.369976309652806 74.62345648340239 27.030844285942308 72.62081486231395 27.260264238278914C73.76000866825501 24.530843940961603 74.21205755099686 21.489941319038294 73.84352862271248 18.529085785193075C73.48533442756442 15.652066073705573 72.19977017898114 13.202367222139477 71.01081654682807 10.635378830640235C70.4627694762863 9.452165176249279 69.84169029158102 8.275400431270452 68.91569820256399 7.370376606645353C67.97240500474089 6.448343783445738 66.77832228280903 5.839727957675742 65.52621194815603 5.549365811394499C64.24485814640607 5.252151698862862 62.905017410462264 5.276899388731903 61.62167321566383 5.546625024894334C61.05395187537364 5.665929849018783 60.54456436211973 5.925498452857125 59.987790183596154 6.069792800953582C59.41761912878475 6.2176340492266995 59.141031048624455 5.860767524632821 58.7271824016977 5.5021275499506475C57.729842377250456 4.637973688724906 56.267745575982545 4.211378331112365 55.005989490402285 4.058700400780152C53.59036071145855 3.8874818558880206 52.12145064167857 4.10102136879724 50.7713517261772 4.566390794250244C49.45723299270608 5.0194266804525265 48.194787924916724 5.755086021641528 47.244681458581525 6.826814154570262C46.821646382200235 7.303872228332718 46.43765363100071 7.846870400834279 46.18808896415253 8.446377142059616C46.08573682931324 8.692403036132472 46.06881848840116 8.83814838884666 45.82331116122872 8.928271897881203C45.596253246544165 9.011704663400653 45.33068888172934 9.014123004430218 45.096358377059914 9.09352520156707C42.83052555209907 9.860945421610804 40.89326068729539 11.611663104269432 39.838428925178505 13.859511091235758C39.22301470530352 15.170896820192851 38.931498677279635 17.479783596752753 39.01134405995529 20.06766631675505C39.09118944263095 22.65554903675735 41.42791088154929 29.40807351798958 43.61343900236175 31.871073245218156C45.56425385061086 34.06950646381407 48.43172125126492 35.52026924744086 51.199056570864556 36.1553256018006C49.36223000143044 38.25484867228787 48.13951624103194 40.87842624387859 47.23534192196943 43.5466625131483C46.253236059700924 46.44504423706348 45.64540064412591 49.45660432116158 45.42094555112014 52.52507603082176C45.20774383419615 55.44046675331146 45.1879930108689 58.523529120516585 45.871463362286235 61.37668786717918C46.51083885232184 64.04484352508126 47.87816232305045 66.23368399092656 50.160760381765826 67.62229541009395C51.20632916084938 68.25839971223316 52.331284001135884 68.73626389967215 53.46274589561932 69.17301628960882C54.57782532424221 69.60340038150099 55.696273110331724 70.0218539909807 56.864327615475766 70.26336564846505C59.07496531013062 70.72027088031464 61.62213253713658 70.64183601958959 63.324990343692036 68.8822510864893C63.93872038483373 68.24792023443844 64.61369328900562 67.45083503109889 65.06145517133535 66.67591795386353C65.22244734752607 66.39724445589178 65.31951728542899 66.2149821536314 65.12392289162621 65.94259634233646C64.88959238695679 65.61636213745022 64.51057561837847 65.36638628636243 64.20956694658491 65.11117069637733C62.4930060494264 63.656054898897345 61.43044237585198 61.71348216122778 61.1625814036735 59.404933814419735C60.89081619897685 57.062609304565676 61.52001006303365 54.03927996079042 63.79732592481268 53.0170472075998C66.60844989147893 51.75515685838082 69.70427661765694 53.20358191234572 72.20283232213265 54.553741709143274C73.26470701349803 50.8059580042826 75.44502949095293 47.43148554301676 78.86337644456387 45.712367516477606C82.6451997902592 43.81050351947217 86.98479251100237 43.58793553338596 90.87118804532182 41.95611961801355C91.88391533910541 41.530894653651075 92.91539825969204 41.04819378415295 93.66103011708508 40.18178280463298C93.97260318275134 39.819676541141774 94.33814652146302 39.34995410183558 94.46254608699317 38.87104196661712C94.62598797770505 38.241950853463614 94.22025401012982 37.714510674918834 93.90684365857264 37.2240711141262C92.2450185702474 34.62362900505152 85.94293666338612 29.369976309652877 82.66349505034955 28.36997630965284Z"/>
      </g>
    </g>
    <g transform="translate(0, 187)" opacity="1">
      <g opacity="1">
        <path fill="rgb(236,198,163)" fill-opacity="1" opacity="1" fill-rule="evenodd" d="M129.9999999999999 0L204.306413031854 124.22690916232219L260.0148444481234 229.2502897362674L272.0139462518357 229.2502897362678L178.6736877525541 5.090379001343849e-13L129.9999999999999 0Z"/>
      </g>
      <g transform="translate(250, 199)" opacity="1">
        <g opacity="1">
          <path fill="rgb(228,228,228)" fill-opacity="1" opacity="1" fill-rule="evenodd" d="M5.418277594775979 24.352252369694412C4.376480105828986 23.817796578774708 3.100425185042009 24.288623887502315 2.6554357316608503 25.37166099988739C2.6554357316608503 25.37166099988739 1.0000000000000004 29.40074151164802 1 32.10567082481627C1 34.81060013798453 1.9012426137621217 40 1.9012426137621217 40C5.0391504485432685 40 58.30305480921819 39.999999999999986 58.30305480921819 39.999999999999986C58.30305480921819 39.999999999999986 60.50157955400674 32.73176087777363 55.76482284857754 32.15222315544669C51.02806614314825 31.572685433119744 47.89501434138343 31.105670824816276 47.89501434138343 31.105670824816276L21.679992646828698 19.41888346032934C21.165423780954697 19.189486094577635 20.563016902233443 19.43024186516509 20.34829451643334 19.951105154500198L18.663213093007254 24.038695042870316C18.663213093007254 24.038695042870316 14.27821527920321 26.08463071358387 11.53668113938517 26.08463071358387C8.795146999567113 26.08463071358387 5.418277594775979 24.352252369694412 5.418277594775979 24.352252369694412Z"/>
        </g>
      </g>
      <g opacity="1">
        <path fill="rgb(219,39,33)" fill-opacity="1" opacity="1" fill-rule="evenodd" d="M244.54305672866192 212.43288901946588L267.6831131665583 205.43288901946505C267.6831131665583 205.43288901946505 252.475679047159 159.97086728548803 230.40537387149487 105.3743129224089C208.3350686958307 50.77775855932984 182.9999999999999 2.842170943040401e-14 182.9999999999999 2.842170943040401e-14L117.644073093137 2.842170943040401e-14C117.644073093137 2.842170943040401e-14 145.81122154335102 64.2315329845148 177.3659821249033 116.72518563388277C208.9207427064556 169.2188382832508 244.54305672866192 212.43288901946588 244.54305672866192 212.43288901946588Z"/>
      </g>
      <g opacity="1">
        <path fill="rgb(236,198,163)" fill-opacity="1" opacity="1" fill-rule="evenodd" d="M125.11662797800847 2.842170943040401e-14C118.10349821502828 43.654188827336654 104.57709104524184 99.42746847695916 103.30056294913993 101.14864846360996C102.44954421840538 102.29610178804388 71.81265135202042 112.56219903925333 11.389884349985145 131.94694021723822L13.98183517656673 142.52793810621182C86.03584305778057 132.1317761166973 124.00216029024944 124.06600594065948 127.88078687397339 118.33062757809834C133.6987267495593 109.72756003425667 162.74848569069698 41.76313698087301 174.00000000000006 2.842170943040401e-14L125.11662797800847 2.842170943040401e-14Z"/>
      </g>
      <g opacity="1">
        <path fill="rgb(255,65,51)" fill-opacity="1" opacity="1" fill-rule="evenodd" d="M32.62950778281521 122.80047704949165L37.19494688621149 139.84193916295922C91.08714661912927 144.5686205526231 124.10808773156295 141.15329628810053 136.2577702235124 129.59596636939162C148.4074527154619 118.03863645068272 162.25450435367972 74.83998099421878 177.7989251381659 -1.1368683772161603e-13L115.47814587919785 -1.1368683772161603e-13C105.62956680360121 61.28387419222589 100.12357013327046 93.21212588468931 98.96015586820549 95.78475507739027C97.79674160314046 98.35738427009113 75.68652557467703 107.36262492745823 32.62950778281521 122.80047704949165Z"/>
      </g>
      <g transform="translate(24.5, 154) rotate(80.00002860513337) translate(-24.5, -154) translate(-6, 134)" opacity="1">
        <g opacity="1">
          <path fill="rgb(228,228,228)" fill-opacity="1" opacity="1" fill-rule="evenodd" d="M5.418277594775979 24.352252369694412C4.376480105828986 23.817796578774708 3.100425185042009 24.288623887502315 2.6554357316608503 25.37166099988739C2.6554357316608503 25.37166099988739 1.0000000000000004 29.40074151164802 1 32.10567082481627C1 34.81060013798453 1.9012426137621217 40 1.9012426137621217 40C5.0391504485432685 40 58.30305480921819 39.999999999999986 58.30305480921819 39.999999999999986C58.30305480921819 39.999999999999986 60.50157955400674 32.73176087777363 55.76482284857754 32.15222315544669C51.02806614314825 31.572685433119744 47.89501434138343 31.105670824816276 47.89501434138343 31.105670824816276L21.679992646828698 19.41888346032934C21.165423780954697 19.189486094577635 20.563016902233443 19.43024186516509 20.34829451643334 19.951105154500198L18.663213093007254 24.038695042870316C18.663213093007254 24.038695042870316 14.27821527920321 26.08463071358387 11.53668113938517 26.08463071358387C8.795146999567113 26.08463071358387 5.418277594775979 24.352252369694412 5.418277594775979 24.352252369694412Z"/>
        </g>
      </g>
    </g>
    <g transform="translate(22, 82)" opacity="1">
      <g opacity="1">
        <path fill="rgb(236,198,163)" fill-opacity="1" opacity="1" fill-rule="evenodd" d="M193.34780883789062 23.689824104309082L158.63803100585938 42.70023441314697L171.45578002929688 56.457642555236816L196.67666625976562 33.36521625518799Q215.380615234375 28.21052646636963 215.031982421875 25.65330219268799Q215.00914001464844 25.485764503479004 214.90452575683594 25.329373359680176C213.94808959960938 23.899678230285645 212.40554809570312 23.94932270050049 210.9846954345703 23.995049476623535C209.87783813476562 24.03067111968994 208.8448486328125 24.063916206359863 208.22030639648438 23.39359760284424C206.7940673828125 21.862794876098633 209.51528930664062 16.51038360595703 212.31480407714844 11.541507720947266C215.11431884765625 6.572635650634766 212.12078857421875 7.005199432373047 210.40896606445312 7.719852447509766Q202.005859375 13.40837574005127 193.34780883789062 23.689824104309082ZM228.24652099609375 50.3642053604126L213 58.73983860015869L213.86822509765625 74.04021549224854C213.86822509765625 74.04021549224854 223.74293518066406 66.91308689117432 232.23837280273438 64.54434299468994C243.07057189941406 61.52406406402588 247.453125 59.21763324737549 252.74636840820312 52.4730920791626C255.5784912109375 48.86445331573486 257.982177734375 41.610127449035645 255.28643798828125 39.24760150909424C254.25238037109375 38.34135913848877 250.39938354492188 40.48238468170166 246.4680938720703 42.6669282913208C243.47195434570312 44.33182239532471 240.43032836914062 46.021992683410645 238.55638122558594 46.4077844619751C236.0337677001953 46.92712116241455 236.3291015625 43.65739917755127 236.56509399414062 41.044548988342285C236.7344512939453 39.16962146759033 236.8732452392578 37.63293170928955 235.91835021972656 38.07723331451416C231.45547485351562 38.15376377105713 228.24652099609375 50.3642053604126 228.24652099609375 50.3642053604126Z"/>
      </g>
      <g transform="translate(165.89828163035418, 43.7480596932011) rotate(-9.000003218077504) translate(-165.89828163035418, -43.7480596932011)" opacity="1">
        <path fill="rgb(32,38,162)" fill-opacity="1" opacity="1" fill-rule="evenodd" d="M142.857986417811 34.75030249173701C154.88599749795782 36.52531623775283 171.30028874683137 36.525316237753046 190.1035650617717 28.386149863163745L194.44344669488837 44.41230735986156C180.8058086756717 54.24155587003479 162.71271374134483 61.226515972979996 148.2876941199101 58.52469633123442C136.91998360280613 56.395513538917726 133.2717246599 41.659545057737404 142.857986417811 34.75030249173701Z"/>
      </g>
      <g opacity="1">
        <path fill="rgb(31,40,207)" fill-opacity="1" opacity="1" fill-rule="evenodd" d="M108.94458770751953 142.25851440429688C97.38665008544922 140.75161743164062 86.76634979248047 139.36697387695312 80.47278594970703 140.60597229003906C73.41133880615234 117.67301940917969 79.27493286132812 103.23391723632812 84.68785858154297 89.90459442138672C87.95023345947266 81.87100219726562 91.04889678955078 74.24053955078125 91.0555191040039 65.39661407470703C91.07479858398438 39.64215850830078 111.75440979003906 2.524354896707238e-29 114.7969970703125 2.524354896707238e-29L142.5437469482422 2.524354896707238e-29C143.78424072265625 15.937365531921387 149.07876586914062 33.19304656982422 154.40731811523438 50.55961227416992C155.65170288085938 54.615257263183594 156.89793395996094 58.67695236206055 158.09483337402344 62.72931671142578C178.25978088378906 67.30652618408203 223.03594207763672 51.37342071533203 223.03594207763672 51.37342071533203C223.03594207763672 51.37342071533203 234.33953094482422 74.7585678100586 233.48668670654297 84.71705627441406C207.42427825927734 98.33104705810547 185.08653259277344 104.40084075927734 166.6832275390625 104.8015365600586C167.26805114746094 115.72136688232422 165.9389190673828 126.11184692382812 161.47393798828125 135.60597229003906C155.49130249023438 148.32713317871094 130.57582092285156 145.07872009277344 108.94458770751953 142.25851440429688Z"/>
      </g>
    </g>
  </g>
</svg>