<svg xmlns="http://www.w3.org/2000/svg" xmlns:xlink="http://www.w3.org/1999/xlink" height="426" width="300.49242447908546">
  <g transform="translate(0.4924244790854573, 0)" opacity="1">
    <g transform="translate(82, 0)" opacity="1">
      <g opacity="1">
        <path fill="rgb(61,34,22)" fill-opacity="1" opacity="1" fill-rule="evenodd" d="M51 49C51 36.85786819458008 60.85786819458008 27 73 27L74 27C84.57807159423828 27 93.42245483398438 34.48179626464844 95.52548217773438 44.43770217895508C98.99715423583984 56.66348648071289 103.80675506591797 86.44055938720703 99.11727142333984 91.0224609375L70.11727142333984 91.0224609375C70.11319732666016 90.95169830322266 70.1092300415039 90.88117980957031 70.10537719726562 90.81090545654297C59.329139709472656 89.39199829101562 51 80.16101837158203 51 69L51 49Z"/>
      </g>
      <g transform="translate(54, 31)" opacity="1">
        <g opacity="1">
          <path fill="rgb(236,198,163)" fill-opacity="1" opacity="1" fill-rule="evenodd" d="M38.143341064453125 9.133933067321777C43.93815231323242 19.935054779052734 43.249576568603516 47.3329963684082 35.76029968261719 49.263458251953125C32.77358627319336 50.0333251953125 26.41100311279297 48.147464752197266 19.93537712097168 44.24431228637695L24 73L0 73L8.262273788452148 34.49012756347656C3.6543643474578857 29.081377029418945 0.5356347560882568 22.452877044677734 1.0567762851715088 15.025453567504883C2.5583300590515137 -6.375020503997803 32.34852981567383 -1.6671888828277588 38.143341064453125 9.133933067321777Z"/>
        </g>
      </g>
      <g opacity="1">
        <path fill="rgb(61,34,22)" fill-opacity="1" opacity="1" fill-rule="evenodd" d="M51.88117218017578 46.150447845458984C52.577999114990234 45.46139144897461 53.252166748046875 44.794742584228516 53.921119689941406 44.19805908203125L53.888877868652344 43.42070007324219C53.888877868652344 43.42070007324219 61.42138671875 28 73.00141906738281 28C84.58145141601562 28 88.23658752441406 33.38832092285156 91.34867858886719 37.96308517456055C89.02143096923828 45.948486328125 79.98973083496094 47.13227844238281 71.96480560302734 52.11009216308594C71.01878356933594 51.34135818481445 69.81279754638672 50.88041305541992 68.5 50.88041305541992C65.46446990966797 50.88041305541992 63 53.344879150390625 63 56.38041305541992C63 59.41594696044922 65.46446990966797 61.88041305541992 68.5 61.88041305541992C68.58377075195312 61.88041305541992 68.66709899902344 61.878536224365234 68.74996185302734 61.874820709228516C69.8557357788086 73.7528305053711 69.41273498535156 87.3172607421875 66.11727142333984 90.53712463378906L37.11726760864258 90.53712463378906C36.28478240966797 76.07305145263672 40.02642822265625 71.94695281982422 43.84983444213867 67.73070526123047C47.44736099243164 63.7635383605957 51.11726760864258 59.716552734375 51.11726760864258 46.902793884277344C51.37540054321289 46.65058517456055 51.6297607421875 46.3990592956543 51.88117218017578 46.150447845458984Z"/>
      </g>
    </g>
    <g transform="translate(0, 187)" opacity="1">
      <g opacity="1">
        <path fill="rgb(31,40,207)" fill-opacity="1" opacity="1" fill-rule="evenodd" d="M97.40782515449412 98.08807410578447C97.40782515449412 98.08807410578447 133.39184717090922 108.1528494628292 159.49967843788434 108.1528494628292C185.6075097048595 108.15284946282918 208 92.65327360316087 208 92.65327360316087C208 92.65327360316087 172.78636131636165 82.32269789366546 150.00000000000006 82.32269789366546C127.21363868363845 82.32269789366546 97.40782515449412 98.08807410578447 97.40782515449412 98.08807410578447Z"/>
      </g>
      <g opacity="1">
        <path fill="rgb(236,198,163)" fill-opacity="1" opacity="1" fill-rule="evenodd" d="M180.2668354502901 117.8243272145278C180.0355208606511 117.47658508182764 179.8401751186278 117.09831140321627 179.68523124705843 116.6885515146357C176.47863667979394 108.20848825497387 125.11688497085059 16.7255335941739 120 0L177.82608730256925 0C181.71652720476965 12.716659383794989 199.2270178014746 92.51975955378764 201.6913204176924 108.44165428646683C209.46664824398812 133.5567190200719 225.47527062596032 214.89524463441595 227.518902994219 220.530128996186C229.6687695751874 226.45793174835794 217.57218411555272 232.63316970842615 214.3487287826464 225.34567121679333C209.21966709468586 213.75003068381204 196.99864858901606 181.6651016670792 191.55713529310492 162.0742678139052C186.45572827277778 143.70790318005564 182.30182060534707 127.18450115325062 180.2668354502901 117.8243272145278Z"/>
      </g>
      <g opacity="1">
        <path fill="rgb(236,198,163)" fill-opacity="1" opacity="1" fill-rule="evenodd" d="M132.95706192592863 128.99359548711755C109.47531335557247 134.92847391250723 23.584028721832475 145.65768403970912 17.689792597449177 147.34053343497578C11.626462563142503 149.0716604319627 6.310082318387224 136.5737788219102 13.804685707258066 133.86652586137643C25.72986509966407 129.55882930428731 58.58913199841226 119.60571209400892 78.51182434430629 115.54404153830158C94.5364316102106 112.27707970559972 109.15908240433959 109.61124309012273 118.97634497977731 108.05015857682994C118.14464926907212 80.47344026661563 114.34275570408042 14.293545532091569 116.83468742219009 1.4210854715202004e-14L168.00000000000003 1.4210854715202004e-14C165.6104050403536 13.706549064222585 145.41011237638563 113.71771389700318 141.65559973725397 123.72854879940795C140.46410135147872 127.30248401733733 136.9089188282042 128.88189953555423 132.95706192593622 128.99359548711755L132.95706192592863 128.99359548711755Z"/>
      </g>
      <g transform="translate(24.5, 157) rotate(80.00002860513337) translate(-24.5, -157) translate(-6, 137)" opacity="1">
        <g opacity="1">
          <path fill="rgb(228,228,228)" fill-opacity="1" opacity="1" fill-rule="evenodd" d="M5.418277594775979 24.352252369694412C4.376480105828986 23.817796578774708 3.100425185042009 24.288623887502315 2.6554357316608503 25.37166099988739C2.6554357316608503 25.37166099988739 1.0000000000000004 29.40074151164802 1 32.10567082481627C1 34.81060013798453 1.9012426137621217 40 1.9012426137621217 40C5.0391504485432685 40 58.30305480921819 39.999999999999986 58.30305480921819 39.999999999999986C58.30305480921819 39.999999999999986 60.50157955400674 32.73176087777363 55.76482284857754 32.15222315544669C51.02806614314825 31.572685433119744 47.89501434138343 31.105670824816276 47.89501434138343 31.105670824816276L21.679992646828698 19.41888346032934C21.165423780954697 19.189486094577635 20.563016902233443 19.43024186516509 20.34829451643334 19.951105154500198L18.663213093007254 24.038695042870316C18.663213093007254 24.038695042870316 14.27821527920321 26.08463071358387 11.53668113938517 26.08463071358387C8.795146999567113 26.08463071358387 5.418277594775979 24.352252369694412 5.418277594775979 24.352252369694412Z"/>
        </g>
      </g>
      <g transform="translate(208, 199)" opacity="1">
        <g opacity="1">
          <path fill="rgb(228,228,228)" fill-opacity="1" opacity="1" fill-rule="evenodd" d="M5.418277594775979 24.352252369694412C4.376480105828986 23.817796578774708 3.100425185042009 24.288623887502315 2.6554357316608503 25.37166099988739C2.6554357316608503 25.37166099988739 1.0000000000000004 29.40074151164802 1 32.10567082481627C1 34.81060013798453 1.9012426137621217 40 1.9012426137621217 40C5.0391504485432685 40 58.30305480921819 39.999999999999986 58.30305480921819 39.999999999999986C58.30305480921819 39.999999999999986 60.50157955400674 32.73176087777363 55.76482284857754 32.15222315544669C51.02806614314825 31.572685433119744 47.89501434138343 31.105670824816276 47.89501434138343 31.105670824816276L21.679992646828698 19.41888346032934C21.165423780954697 19.189486094577635 20.563016902233443 19.43024186516509 20.34829451643334 19.951105154500198L18.663213093007254 24.038695042870316C18.663213093007254 24.038695042870316 14.27821527920321 26.08463071358387 11.53668113938517 26.08463071358387C8.795146999567113 26.08463071358387 5.418277594775979 24.352252369694412 5.418277594775979 24.352252369694412Z"/>
        </g>
      </g>
      <g opacity="1">
        <path fill="rgb(43,68,255)" fill-opacity="1" opacity="1" fill-rule="evenodd" d="M117.00000000000064 1.0658141036401503e-14C117.00000000000064 1.0658141036401503e-14 150.8202591611074 -9.676108600839552 181.0000000000005 1.0658141036401503e-14C188.00000000000003 31.93746819563266 205.00893992169625 44.61347410271792 208.0000000000005 93.5789257456402C173.99999999999997 110.4727241350591 132.00000000000037 81.53045708433858 97.00000000000041 98.0053109533974C87.00000000000047 74.96110731651297 101.00000000000063 19.464518114654993 117.00000000000064 1.0658141036401503e-14Z"/>
      </g>
    </g>
    <g transform="translate(22, 82)" opacity="1">
      <g opacity="1">
        <path fill="rgb(236,198,163)" fill-opacity="1" opacity="1" fill-rule="evenodd" d="M192.00000762939453 65.310791015625L231.4828872680664 59.92516326904297C239.38105010986328 55.53202819824219 246.64698028564453 52.55794906616211 253.28070831298828 51.0029296875C255.14749908447266 50.94842529296875 258.11719512939453 51.627052307128906 253.69315338134766 55.3151969909668C249.26911163330078 59.00334167480469 244.78031158447266 63.08319854736328 245.56851959228516 65.05149841308594C246.35675811767578 67.01979064941406 250.47107696533203 66.2874526977539 251.15262603759766 69.31486511230469C251.6070327758789 71.33313751220703 244.92975616455078 71.66108703613281 231.12085723876953 70.2987060546875L199.08386993408203 83L192.00000762939453 65.310791015625ZM20.00457763671875 173.68966674804688C27.362333297729492 168.64456176757812 37.96529769897461 159.81468200683594 39.397926330566406 156.90826416015625C42.32839584350586 150.96311950683594 67.96979522705078 74.4496841430664 67.96979522705078 74.4496841430664L89.86719512939453 74.53186798095703C89.86719512939453 74.53186798095703 53.850555419921875 155.58258056640625 52.307926177978516 159.40560913085938C50.30400466918945 164.371826171875 53.70793914794922 171.58731079101562 56.016090393066406 176.4800262451172C56.37317657470703 177.23695373535156 56.70403289794922 177.93829345703125 56.98458480834961 178.56710815429688C53.78189468383789 180.00021362304688 52.243438720703125 178.26800537109375 50.621498107910156 176.44178771972656C48.78955841064453 174.37911987304688 46.85111618041992 172.196533203125 42.28791809082031 174.31948852539062C40.52493667602539 175.1396942138672 38.85667419433594 176.10940551757812 37.22679138183594 177.0568084716797C31.596811294555664 180.32933044433594 26.42481231689453 183.33566284179688 19.389036178588867 178.994384765625C18.273605346679688 178.30612182617188 17.0512752532959 175.7147216796875 20.00457763671875 173.68966674804688Z"/>
      </g>
      <g transform="translate(179.1834586006915, 58.591470119339434) rotate(5.000001787820835) translate(-179.1834586006915, -58.591470119339434)" opacity="1">
        <path fill="rgb(175,185,197)" fill-opacity="1" opacity="1" fill-rule="evenodd" d="M123.4735678787091 9.669273174878606L140.6528143805522 9.312807047135749C148.18865360940842 47.00064122170629 173.20374574344908 69.03369049105812 223.79046412398608 56.40794569390771L234.89334932267388 104.81913207625956C187.48907293976004 115.21041174573926 143.76050535233915 99.69352821765655 130.59577781766785 48.47464853188671C127.18784574820515 35.21569864603586 124.20137904927533 21.368177743791062 123.4735678787091 9.669273174878606Z"/>
      </g>
      <g opacity="1">
        <path fill="rgb(197,207,214)" fill-opacity="1" opacity="1" fill-rule="evenodd" d="M42.401634216308594 147Q60.25723648071289 51.99594497680664 117.77587127685547 0L119.4771499633789 0L119.49081420898438 0.015938445925712585L145.4676055908203 5.965276718139648C145.4676055908203 50.64442443847656 159.7000274658203 79.15045928955078 167 112L96.8436508178711 112C95.85537719726562 123.35089874267578 95.24848175048828 135.01756286621094 94.93223571777344 147L42.401634216308594 147Z"/>
      </g>
      <g opacity="1">
        <path fill="rgb(0,0,0)" fill-opacity="0.1" opacity="1" fill-rule="evenodd" d="M96.8436508178711 112C98.85569763183594 88.89053344726562 102.44855499267578 67.08991241455078 108.38797760009766 46.59813690185547C107.08617401123047 68.51229858398438 106.72484588623047 95.69792175292969 111.10244750976562 112L96.8436508178711 112Z"/>
      </g>
    </g>
  </g>
</svg>