<svg xmlns="http://www.w3.org/2000/svg" xmlns:xlink="http://www.w3.org/1999/xlink" height="459.36818761964935" width="349.85808261475586">
  <g transform="translate(174.92904130737847, 229.68409380982465) rotate(359.000128365536) translate(-174.92904130737847, -229.68409380982465)" opacity="1">
    <g transform="translate(122.35555927804425, 78.47033332650551) scale(-1, 1) translate(-122.35555927804425, -78.47033332650551) translate(122.35555927804425, 78.47033332650551) rotate(17.000006078590843) translate(-122.35555927804425, -78.47033332650551) translate(48.855559278044254, 21.97033332650551)" opacity="1">
      <g transform="translate(58.36764705882352, 33.68269230769231)" opacity="1">
        <g opacity="1">
          <path fill="rgb(236,198,163)" fill-opacity="1" opacity="1" fill-rule="evenodd" d="M39.84187042713165 12.292587280273438C45.63668167591095 23.093708038330078 44.94810593128204 50.49165153503418 37.458829045295715 52.422109603881836C34.47211945056915 53.19197654724121 28.109532475471497 51.30611991882324 21.633906483650208 47.40296745300293L25.698529362678528 76.15865135192871L1.6985293626785278 76.15865135192871L9.960803151130676 37.64877891540527C5.352893948554993 32.240028381347656 2.234164237976074 25.611530303955078 2.755305767059326 18.184106826782227C4.2568598985672 -3.216366767883301 34.047059178352356 1.4914648532867432 39.84187042713165 12.292587280273438Z"/>
        </g>
      </g>
      <g opacity="1">
        <path fill="rgb(61,34,22)" fill-opacity="1" opacity="1" fill-rule="evenodd" d="M65.30489954356784 76.3918246903304C62.04902654970145 61.83105614969084 52.77357579909564 51.90546815287838 54.19015962295545 45.39742730599233C55.60674344681526 38.889386459106255 61.74140073448503 37.30318307038172 61.74140073448503 37.30318307038172C61.74140073448503 37.30318307038172 64.91418739703967 24.400594949944008 82.20717670318567 26.327235824974387C99.50016600933161 28.25387670000477 110.05484407881855 35.47304552094498 105.49680025989737 51.35836731005961C101.30688612155703 51.35836731005959 96.24876430316593 49.83515857657696 89.2544331163511 52.44490577159803C85.92552350780146 53.68699915856378 84.49256566227176 60.14858693557176 84.49256566227176 60.14858693557176L81.33185502384049 60.14858693557176C81.33185502384049 60.14858693557176 76.73045081851427 52.48044879951517 72.25782696081164 54.51292391491366C67.78520310310903 56.54539903031218 70.22442673081022 64.38670427963022 70.22442673081022 64.38670427963022L68.66745717729239 76.3918246903304L65.30489954356784 76.3918246903304Z"/>
      </g>
    </g>
    <g transform="translate(183.42706729434846, 326.9183933021764) scale(-1, 1) translate(-183.42706729434846, -326.9183933021764) translate(20.92706729434846, 197.4183933021764)" opacity="1">
      <g opacity="1">
        <path fill="rgb(236,198,163)" fill-opacity="1" opacity="1" fill-rule="evenodd" d="M140.8333333333332 -2.6645352591003757e-15L221.33194745117515 134.62246641439936L281.6827481521336 248.43441440039018L294.6817751061553 248.43441440039064L193.56316173193358 5.489706786940615e-13L140.8333333333332 -2.6645352591003757e-15Z"/>
      </g>
      <g transform="translate(270.83333333333337, 215.65271966527197)" opacity="1">
        <g opacity="1">
          <path fill="rgb(228,228,228)" fill-opacity="1" opacity="1" fill-rule="evenodd" d="M5.708816765396595 26.307484288957664C4.666916643565292 25.772803812405346 3.390596973205569 26.24371604880563 2.945656359866565 27.32698283334202C2.945656359866565 27.32698283334202 1.083333333333334 31.86105460885706 1.0833333333333335 34.79233783944525C1.0833333333333335 37.723621070033445 2.0596794982422986 43.34728033472803 2.0596794982422986 43.34728033472803C5.4590796525885406 43.34728033472803 63.16164270998637 43.34728033472801 63.16164270998637 43.34728033472801C63.16164270998637 43.34728033472801 65.54337785017397 35.47082036545343 60.41189141929233 34.84278576259704C55.2804049884106 34.21475115974064 51.88626553649871 33.70865583107705 51.88626553649871 33.70865583107705L23.40852670043682 21.009051782608342C22.893901671160616 20.779555538441535 22.29137426674298 21.02035727278472 22.076676049433868 21.541329558351325L20.218480850757853 26.05030132260842C20.218480850757853 26.05030132260842 15.468066552470143 28.26744499923942 12.498071234333935 28.26744499923942C9.528075916197706 28.26744499923942 5.708816765396595 26.307484288957664 5.708816765396595 26.307484288957664Z"/>
        </g>
      </g>
      <g opacity="1">
        <path fill="rgb(219,39,33)" fill-opacity="1" opacity="1" fill-rule="evenodd" d="M264.9216447893838 230.2096998160739L289.99003926377145 222.62392575749556C289.99003926377145 222.62392575749556 273.51531896775555 173.35755074034057 249.6058216941194 114.19224705817534C225.69632442048325 55.026943376010166 198.2499999999999 4.263256414560601e-14 198.2499999999999 4.263256414560601e-14L127.4477458508984 4.263256414560601e-14C127.4477458508984 4.263256414560601e-14 157.96215667196358 69.60655666522734 192.1464806353119 126.49298359487715C226.33080459866022 183.37941052452697 264.9216447893838 230.2096998160739 264.9216447893838 230.2096998160739Z"/>
      </g>
      <g opacity="1">
        <path fill="rgb(236,198,163)" fill-opacity="1" opacity="1" fill-rule="evenodd" d="M135.5430136428425 3.552713678800501e-14C127.94545639961399 47.30725902209286 113.2918486323453 107.74775872607708 111.90894319490161 109.61297051077398C110.98700623660582 110.85644503390529 77.7970389646888 121.98162992119921 12.33904137915058 142.98852517265564L15.146988107947296 154.45496221551824C93.20549664592895 143.18882851139998 134.33567364777022 134.448098487995 138.53751911347118 128.23277214530322C144.84028731202258 118.90978263126559 176.31085949825507 45.25796015918874 188.50000000000006 3.552713678800501e-14L135.5430136428425 3.552713678800501e-14Z"/>
      </g>
      <g opacity="1">
        <path fill="rgb(255,65,51)" fill-opacity="1" opacity="1" fill-rule="evenodd" d="M35.34863343138315 133.07666759756626L40.294525793395785 151.5441934862194C98.67774217072338 156.66641306748693 134.45042837585987 152.9652876092805 147.6125844088051 140.4408171116001C160.77474044175034 127.91634661391976 175.7757130498197 81.10274091005299 192.61550223301307 -1.2789769243681803e-13L125.10132470246435 -1.2789769243681803e-13C114.4320307039013 66.4122318652155 108.46720097770967 101.01230378298968 107.2068355238893 103.8002157533225C105.94647007006884 106.58812772365523 81.99373603923345 116.34694500506978 35.34863343138315 133.07666759756626Z"/>
      </g>
      <g transform="translate(26.541666666666664, 166.88702928870293) rotate(80.00002860513337) translate(-26.541666666666664, -166.88702928870293) translate(-6.5, 145.2133891213389)" opacity="1">
        <g opacity="1">
          <path fill="rgb(228,228,228)" fill-opacity="1" opacity="1" fill-rule="evenodd" d="M5.708816765396595 26.307484288957664C4.666916643565292 25.772803812405346 3.390596973205569 26.24371604880563 2.945656359866565 27.32698283334202C2.945656359866565 27.32698283334202 1.083333333333334 31.86105460885706 1.0833333333333335 34.79233783944525C1.0833333333333335 37.723621070033445 2.0596794982422986 43.34728033472803 2.0596794982422986 43.34728033472803C5.4590796525885406 43.34728033472803 63.16164270998637 43.34728033472801 63.16164270998637 43.34728033472801C63.16164270998637 43.34728033472801 65.54337785017397 35.47082036545343 60.41189141929233 34.84278576259704C55.2804049884106 34.21475115974064 51.88626553649871 33.70865583107705 51.88626553649871 33.70865583107705L23.40852670043682 21.009051782608342C22.893901671160616 20.779555538441535 22.29137426674298 21.02035727278472 22.076676049433868 21.541329558351325L20.218480850757853 26.05030132260842C20.218480850757853 26.05030132260842 15.468066552470143 28.26744499923942 12.498071234333935 28.26744499923942C9.528075916197706 28.26744499923942 5.708816765396595 26.307484288957664 5.708816765396595 26.307484288957664Z"/>
        </g>
      </g>
    </g>
    <g transform="translate(169.4270672943462, 200.41839330217627) scale(-1, 1) translate(-169.4270672943462, -200.41839330217627) translate(169.4270672943462, 200.41839330217627) rotate(21.00000750884751) translate(-169.4270672943462, -200.41839330217627) translate(30.927067294346188, 99.41839330217627)" opacity="1">
      <g opacity="1">
        <path fill="rgb(236,198,163)" fill-opacity="1" opacity="1" fill-rule="evenodd" d="M202.50000762939453 72.810791015625L241.9828872680664 67.42516326904297Q253.83014678955078 60.8354606628418 263.7807083129883 58.5029296875C265.64749908447266 58.44842529296875 268.61719512939453 59.127052307128906 264.19315338134766 62.8151969909668C259.7691116333008 66.50334167480469 255.28031158447266 70.58319854736328 256.0685501098633 72.55149841308594C256.8567581176758 74.51979064941406 260.97107696533203 73.7874526977539 261.6526565551758 76.81486511230469C262.1070327758789 78.83313751220703 255.42975616455078 79.16108703613281 241.62085723876953 77.7987060546875L209.58386993408203 90.5L202.50000762939453 72.810791015625ZM30.50457763671875 181.18966674804688C37.862335205078125 176.14456176757812 48.465301513671875 167.31468200683594 49.897926330566406 164.40826416015625C52.828399658203125 158.46311950683594 78.46979522705078 81.9496841430664 78.46979522705078 81.9496841430664L100.36719512939453 82.03186798095703C100.36719512939453 82.03186798095703 64.35055541992188 163.08258056640625 62.80792999267578 166.90560913085938C60.80400848388672 171.871826171875 64.20794677734375 179.0873260498047 66.51609802246094 183.9800262451172C66.87317657470703 184.73695373535156 67.20404052734375 185.43829345703125 67.48458862304688 186.06710815429688C64.28189849853516 187.50021362304688 62.74344253540039 185.76800537109375 61.12150192260742 183.94178771972656C59.2895622253418 181.87911987304688 57.35111999511719 179.696533203125 52.78791809082031 181.81948852539062C51.02493667602539 182.6396942138672 49.35667419433594 183.60940551757812 47.72679138183594 184.5568084716797C42.09680938720703 187.829345703125 36.92481231689453 190.83566284179688 29.889036178588867 186.494384765625C28.773605346679688 185.80612182617188 27.5512752532959 183.2147216796875 30.50457763671875 181.18966674804688Z"/>
      </g>
      <g transform="translate(193.88210168902947, 63.29132066367147) rotate(5.000001787820835) translate(-193.88210168902947, -63.29132066367147)" opacity="1">
        <path fill="rgb(175,185,197)" fill-opacity="1" opacity="1" fill-rule="evenodd" d="M133.60225899375945 10.444883322596137L152.19074056020688 10.059823655194762C160.3447541008052 50.77074613253834 187.41186551146637 74.5711522951537 242.1482756341568 60.93264722015699L254.1619443842995 113.22708384708253C202.8690359543497 124.45188862373973 155.55335930702321 107.69033529393916 141.3087127167734 52.362989323214514C137.6212237197376 38.04048730748258 134.38977342441117 23.08220269650157 133.60225899375945 10.444883322596137Z"/>
      </g>
      <g opacity="1">
        <path fill="rgb(197,207,214)" fill-opacity="1" opacity="1" fill-rule="evenodd" d="M52.901634216308594 154.5Q70.75723266601562 59.49594497680664 128.27587890625 7.5L129.97714233398438 7.5L129.9907989501953 7.515936374664307L155.9676055908203 13.465276718139648C155.9676055908203 58.14442443847656 170.2000274658203 86.65045928955078 177.5 119.5L107.3436508178711 119.5C106.35537719726562 130.85089111328125 105.74848175048828 142.51756286621094 105.43223571777344 154.5L52.901634216308594 154.5Z"/>
      </g>
      <g opacity="1">
        <path fill="rgb(0,0,0)" fill-opacity="0.1" opacity="1" fill-rule="evenodd" d="M107.3436508178711 119.5C109.35569763183594 96.39053344726562 112.94855499267578 74.58991241455078 118.88797760009766 54.09813690185547C117.58617401123047 76.01229858398438 117.22484588623047 103.19792175292969 121.60244750976562 119.5L107.3436508178711 119.5Z"/>
      </g>
    </g>
  </g>
</svg>