<svg xmlns="http://www.w3.org/2000/svg" xmlns:xlink="http://www.w3.org/1999/xlink" height="426" width="300">
  <g opacity="1">
    <g transform="translate(82, 0)" opacity="1">
      <g transform="translate(54, 31)" opacity="1">
        <g opacity="1">
          <path fill="rgb(236,198,163)" fill-opacity="1" opacity="1" fill-rule="evenodd" d="M38.143341064453125 9.133933067321777C43.93815231323242 19.935054779052734 43.249576568603516 47.3329963684082 35.76029968261719 49.263458251953125C32.77358627319336 50.0333251953125 26.41100311279297 48.147464752197266 19.93537712097168 44.24431228637695L24 73L0 73L8.262273788452148 34.49012756347656C3.6543643474578857 29.081377029418945 0.5356347560882568 22.452877044677734 1.0567762851715088 15.025453567504883C2.5583300590515137 -6.375020503997803 32.34852981567383 -1.6671888828277588 38.143341064453125 9.133933067321777Z"/>
        </g>
      </g>
      <g opacity="1">
        <path fill="rgb(61,34,22)" fill-opacity="1" opacity="1" fill-rule="evenodd" d="M75.13532257080078 48.38890075683594C77.21121215820312 45.297855377197266 79.2042465209961 42.94013214111328 81.79680633544922 41.570953369140625C92.34786987304688 41.7376823425293 93.58316040039062 39.84617233276367 93.58316040039062 33.470947265625C91.87901306152344 32.25151443481445 85.86595916748047 30.198163986206055 79.1320571899414 29.62057113647461C75.69688415527344 28.63753318786621 71.62744903564453 28.822420120239258 67.70735168457031 30.462209701538086C62.86803436279297 31.835241317749023 58.770477294921875 34.79224395751953 56.960487365722656 40.328277587890625C50.41212463378906 51.628971099853516 55.382408142089844 63.39267921447754 62.080387115478516 67.41119575500488C63.86328887939453 65.29888343811035 65.41919708251953 63.25181770324707 66.8075180053711 61.29221534729004C65.69229125976562 60.20274353027344 65 58.682220458984375 65 57C65 53.68629455566406 67.68629455566406 51 71 51C71.24360656738281 51 71.48382568359375 51.01451873779297 71.71983337402344 51.0427360534668C71.86896514892578 55.185768127441406 72.48253631591797 69.20264625549316 74.09442138671875 74.07147407531738C75.99476623535156 79.81158638000488 87.08368682861328 81.22099494934082 90.95122528076172 81.22099494934082C94.29170227050781 81.22099494934082 94.1778335571289 78.05780220031738 94.09622955322266 75.79079627990723C94.08448028564453 75.46431922912598 94.07339477539062 75.15641975402832 94.07339477539062 74.87923622131348C94.07339477539062 74.30010414123535 93.32015228271484 74.30160713195801 92.46908569335938 74.30330085754395C91.36397552490234 74.30549812316895 90.09391784667969 74.30802345275879 90.09391784667969 73.04006385803223C90.09391784667969 70.79561805725098 95.13069915771484 69.40019416809082 96.16496276855469 67.95247840881348C97.41857147216797 66.19774055480957 97.8408203125 63.83104133605957 95.94959259033203 63.83104133605957C93.35519409179688 63.83104133605957 88.3386001586914 67.58469581604004 82.42579650878906 67.58469581604004C76.54979705810547 67.58469581604004 75.15248107910156 48.624977111816406 75.13532257080078 48.38890075683594Z"/>
      </g>
    </g>
    <g transform="translate(0, 187)" opacity="1">
      <g opacity="1">
        <path fill="rgb(25,24,71)" fill-opacity="1" opacity="1" fill-rule="evenodd" d="M128 9.947598300641403e-14L164.25496224678028 127.22690916232203L190.70695729900518 221.00000000000006L209.99999999999997 221.00000000000006L181.89097407156785 9.947598300641403e-14L128 9.947598300641403e-14Z"/>
      </g>
      <g opacity="1">
        <path fill="rgb(47,54,118)" fill-opacity="1" opacity="1" fill-rule="evenodd" d="M118.30434211499131 0C117.46576835948929 65.57422437235464 114.60624741629002 101.34018825053882 113.72577928539465 107.29789163454979C112.845311154499 113.25559501856077 99.53217183148816 151.1562978070446 73.78636131636156 221.00000000000009L93.77264676761394 220.99999999999974C126.54903328209627 153.9969016851812 144.8456508067597 116.09619889669796 148.66249934160425 107.29789163454979C152.4793478764496 98.49958437240211 164.25851476258111 62.73362049421905 181.99999999999994 0L118.30434211499131 0Z"/>
      </g>
      <g transform="translate(72, 199)" opacity="1">
        <g opacity="1">
          <path fill="rgb(25,24,71)" fill-opacity="1" opacity="1" fill-rule="evenodd" d="M0 40L0.9999999999999999 19L22 19.00000000000015C36.93640491046532 29.500000000000224 61 36.00000000000003 61 36.00000000000003L61 40L23.000000000000004 40L10.000000000000002 38.000000000000014L10.000000000000002 40L0 40Z"/>
        </g>
      </g>
      <g transform="translate(188, 199)" opacity="1">
        <g opacity="1">
          <path fill="rgb(25,24,71)" fill-opacity="1" opacity="1" fill-rule="evenodd" d="M0 40L0.9999999999999999 19L22 19.00000000000015C36.93640491046532 29.500000000000224 61 36.00000000000003 61 36.00000000000003L61 40L23.000000000000004 40L10.000000000000002 38.000000000000014L10.000000000000002 40L0 40Z"/>
        </g>
      </g>
    </g>
    <g transform="translate(22, 82)" opacity="1">
      <g opacity="1">
        <path fill="rgb(236,198,163)" fill-opacity="1" opacity="1" fill-rule="evenodd" d="M6.8242692947387695 155.20285034179688C14.812564849853516 151.2308349609375 26.541227340698242 143.96253967285156 28.364410400390625 141.28378295898438C32.09375762939453 135.80435180664062 53.66713905334473 77.53591918945312 53.66713905334473 77.53591918945312L71.3789234161377 80.10813903808594C71.3789234161377 80.10813903808594 42.86087989807129 141.982421875 40.80120277404785 145.55355834960938C38.125619888305664 150.1925506591797 40.49221992492676 157.8115692138672 42.09698677062988 162.97792053222656C42.34525489807129 163.77716064453125 42.57528114318848 164.51771545410156 42.76558876037598 165.179443359375C39.39461708068848 166.1528778076172 38.11220741271973 164.22340393066406 36.760210037231445 162.18922424316406C35.2331657409668 159.8916778564453 33.617347717285156 157.4605712890625 28.803098678588867 158.92779541015625C26.943113327026367 159.49465942382812 25.15611457824707 160.22276306152344 23.41023063659668 160.93409729003906C17.379619598388672 163.3912353515625 11.839557647705078 165.64849853515625 5.476445198059082 160.37026977539062C4.46765661239624 159.53347778320312 3.6178767681121826 156.79718017578125 6.8242692947387695 155.20285034179688ZM190.35887336730957 88.61002349853516L220.545503616333 114.20167541503906C229.01304817199707 117.13396453857422 236.020845413208 120.53556823730469 241.56891059875488 124.40650939941406C242.84956550598145 125.74851989746094 244.3261890411377 128.38819885253906 238.68408393859863 127.55531311035156C233.04197883605957 126.722412109375 227.06988716125488 126.10008239746094 226.1518726348877 127.98018646240234C225.7498950958252 128.80345153808594 226.15110969543457 129.7559051513672 226.58104133605957 130.7764892578125C227.13292121887207 132.08657836914062 227.7320728302002 133.50889587402344 226.740083694458 134.91415405273438C225.563570022583 136.58079528808594 220.88545417785645 131.86834716796875 212.70569038391113 120.77677917480469L182.10870552062988 105.50664520263672L190.35887336730957 88.61002349853516Z"/>
      </g>
      <g transform="translate(169.7534010821868, 61.2751799421131) rotate(5.000001787820835) translate(-169.7534010821868, -61.2751799421131)" opacity="1">
        <path fill="rgb(31,40,207)" fill-opacity="1" opacity="1" fill-rule="evenodd" d="M122.9792717969762 9.210542207567645L133.5961226944249 4.63843186546005C151.66835591866715 40.38960794301042 176.92306460767213 74.30101452519322 216.5275303673974 101.34603477498638L208.76828731348544 117.91192801876637C174.61584419127445 101.62139447890672 142.57061150029924 89.44911875896118 127.58307018109205 61.832198529380165C122.55286387173953 52.56324617588812 123.64558032161553 20.761364054489828 122.9792717969762 9.210542207567645Z"/>
      </g>
      <g opacity="1">
        <path fill="rgb(255,65,51)" fill-opacity="1" opacity="1" fill-rule="evenodd" d="M89.99999999999999 109.99999999999972C89.99999999999999 109.99999999999972 137.15748912138778 114.99999999999989 164.23623368208175 109.99999999999997C166.47281692404033 109.58702235309588 166.82566710708562 105.8423883358702 165.78845438711653 103.30096583456569C149.63635270071822 63.72440272570519 138.5603018575191 29.191626559974658 138.56030185751914 1.7026373373741492C134.11474081943967 3.9438636249492274 122.99999999999997 2.3743888828854613 122.99999999999997 2.3743888828854613C103.08620166781336 30.70267616765578 93.93253778275232 63.206144658969954 89.99999999999999 109.99999999999972Z"/>
      </g>
      <g opacity="1">
        <path fill="rgb(31,40,207)" fill-opacity="1" opacity="1" fill-rule="evenodd" d="M117.29317092895508 0C117.80717849731445 -0.34637004137039185 118.07861709594727 -0.5186758041381836 118.07861709594727 -0.5186758041381836L118.04939651489258 0L126.34842300415039 0C128.28076553344727 11.36487102508545 134.3755226135254 165.26258945465088 153.19060134887695 215.60597324371338L51.385318756103516 215.60597324371338C53.533348083496094 170.72178745269775 70.08165740966797 117.04671573638916 87.22422790527344 71.47032260894775C74.57445526123047 84.05579471588135 59.801273345947266 105.15292453765869 47.86185836791992 140.27269077301025L28.792621612548828 135.37764072418213C48.225921630859375 51.63823413848877 105.16194534301758 8.451684951782227 116.20959854125977 0.7438235282897949C116.3174934387207 0.4945472478866577 116.42482376098633 0.24660247564315796 116.53158950805664 0L117.29317092895508 0Z"/>
      </g>
    </g>
  </g>
</svg>