<svg xmlns="http://www.w3.org/2000/svg" xmlns:xlink="http://www.w3.org/1999/xlink" height="433" width="300">
  <g transform="translate(0, 7)" opacity="1">
    <g transform="translate(82, 0)" opacity="1">
      <g transform="translate(54, 31)" opacity="1">
        <g opacity="1">
          <path fill="rgb(236,198,163)" fill-opacity="1" opacity="1" fill-rule="evenodd" d="M38.143341064453125 9.133933067321777C43.93815231323242 19.935054779052734 43.249576568603516 47.3329963684082 35.76029968261719 49.263458251953125C32.77358627319336 50.0333251953125 26.41100311279297 48.147464752197266 19.93537712097168 44.24431228637695L24 73L0 73L8.262273788452148 34.49012756347656C3.6543643474578857 29.081377029418945 0.5356347560882568 22.452877044677734 1.0567762851715088 15.025453567504883C2.5583300590515137 -6.375020503997803 32.34852981567383 -1.6671888828277588 38.143341064453125 9.133933067321777Z"/>
        </g>
      </g>
      <g opacity="1">
        <path fill="rgb(221,181,131)" fill-opacity="1" opacity="1" fill-rule="evenodd" d="M78.46395003336747 27.685256755911034C75.30081950753706 27.166537817110928 66.78395109860651 26.809904157012816 65.21328843346899 26.81013439178369C64.20956085278135 26.81013439178369 63.121825887110504 27.039448223583513 62.527347397748144 26.117818435737526C62.040517715919094 25.363108856781977 62.218861262727756 24.08668728700481 62.07356980181416 23.2108742185646C61.904866446724895 22.193466766031175 61.66523882398573 21.1891826954381 61.42285686075553 20.187431207324714C60.73312409607067 17.33689450901818 59.69014716338273 14.624959142783425 58.230805759766966 12.07879281158467C55.4925322547122 7.301881785297345 51.48106485757587 3.5601062889014568 46.416750807657664 1.3827760606577932C40.82429196854139 -1.0213354169059468 34.49596516151196 -1.571826754088006 28.480485528614352 -1.0841895093571239C22.043132743806083 -0.5624775185354789 16.215866377810556 1.5625894167176657 10.137955027110934 3.562408636610293C4.34603603075314 5.468061835211625 -1.7203989012329117 6.218166718749465 -7.778111754996608 5.2875577748390725C-13.881500755240125 4.350041787802175 -18.493184851095748 1.0420285997504646 -23.641276757622997 -2.0976829707854536C-28.91147775926246 -5.311990607087684 -34.934302300136956 -7.414264300023338 -41.16462049135252 -6.931001515939295C-46.98041043863449 -6.479741365007959 -52.34058656298825 -4.078392704694757 -57.149665060717 -0.870531641977319C-61.64910978155398 2.130808831257749 -65.36173123538956 5.741810977791866 -67.45778434923353 10.824013310270526C-69.71267109807312 16.290937944895187 -69.7106053427047 22.291777013198338 -66.00257445635454 27.123253680185066C-60.62793804442173 34.12653494091414 -50.65011008648136 35.937561648682426 -42.34898690259159 35.757518057851684C-37.54748284121381 35.65368217618327 -32.83182239181343 34.777178403430426 -28.29863699995868 33.182802615063395C-22.2530891500311 31.056354271184873 -17.02879382324594 27.452259167777285 -11.372985152831 24.528047342788117C-8.718719032759608 23.155848108323475 -5.975166375096769 22.02884890484957 -3.0994053738537843 21.217041102714973C-0.3087993994654141 20.42894748198132 2.4398028824314224 20.06747889169446 4.966451226408054 21.75325788410225C7.639309144795391 23.5366564193645 10.034437730314622 25.28851279101579 13.092214732354648 26.404921195029047C16.0255873555398 27.475973349178304 19.13271295804799 28.07504422301676 22.25797130212375 28.050869572074C28.33863699331458 28.003901678813754 34.33277048740531 26.109299749214877 40.23853555740153 24.840245692105924C45.054499906358444 23.80557063175625 50.20741190874526 22.77434909296979 55.117253362778996 23.768963303185785C57.16602363152302 24.18407659508844 60.158614575270036 25.04101041231621 60.89861405392017 27.170221573445232C48.44417493759447 29.427443267185367 43.55270720027616 44.830149439280355 47.06380274150189 56.137209272131635C48.95878899948434 62.24004234393602 60.34981171103803 69.37418967816237 64.77879122097366 66.16583817329453C67.5846771713523 64.13325518410034 65.88121600259802 61.46484187037171 64.77879122097372 59.70331563834336C62.667589234427794 56.32991577536083 61.94526344059659 51.996667152565664 65.8518363706913 49.64804225478479C69.22154243336576 47.62243674055315 72.7645562054492 52.43271227308571 72.83157849073635 52.427416873355384C73.75772548092036 52.35443245098535 81.76044026005223 47.82854567719417 87.2741650743549 41.22412901107471C92.71347508212625 41.54656559152193 93.53869713723057 37.96002453288054 92.23989643408714 35.026907995301606C90.94109573094374 32.093791457722716 82.83439980786423 28.40243806721263 78.46395003336747 27.685256755911034Z"/>
      </g>
    </g>
    <g transform="translate(0, 187)" opacity="1">
      <g transform="translate(171.3336063715123, 82.4078311785363) rotate(-55.00001966602919) translate(-171.3336063715123, -82.4078311785363)" opacity="1">
        <path fill="rgb(236,198,163)" fill-opacity="1" opacity="1" fill-rule="evenodd" d="M207.4695221433195 -9.658401942459811C188.34470973395662 5.934126129011734 195.62032095320487 142.64425109272264 194.34379285710298 144.36543107937337C193.4927741263684 145.51288440380725 103.41916892540773 163.89306641055805 103.41916892540773 163.89306641055805L106.01111975198893 174.47406429953207C106.01111975198893 174.47406429953207 211.374299271086 169.2448491656834 217.5151847291312 161.4241533604295C226.30717393825068 150.22715683649716 239.24804381761712 36.18229313580335 239.24804381761712 36.18229313580335L207.4695221433195 -9.658401942459811Z"/>
      </g>
      <g transform="translate(176.2309235181367, 77.64661711825445) rotate(-55.00001966602919) translate(-176.2309235181367, -77.64661711825445)" opacity="1">
        <path fill="rgb(47,54,118)" fill-opacity="1" opacity="1" fill-rule="evenodd" d="M113.54008778944102 152.7578104517941L118.10552689283715 169.7992725652628C170.46563773951772 175.81152917429912 204.9832519128117 168.3695599242329 217.13293440476144 156.81223000552407C229.28261689671103 145.25490008681513 238.9217592468326 31.91075220628496 238.9217592468326 31.91075220628496L204.92640729444014 -16.639641923021056C159.40104182650973 17.70632309542337 186.53730913483184 130.14045361450377 185.37389486976681 132.71308280720461C184.2104806047018 135.2857119999057 156.59710558130297 137.31995832976057 113.54008778944102 152.7578104517941Z"/>
      </g>
      <g transform="translate(223.383915048769, 187.2791211634178) rotate(20.00000715128334) translate(-223.383915048769, -187.2791211634178) translate(192.883915048769, 167.2791211634178)" opacity="1">
        <g opacity="1">
          <path fill="rgb(228,228,228)" fill-opacity="1" opacity="1" fill-rule="evenodd" d="M5.418277594775979 24.352252369694412C4.376480105828986 23.817796578774708 3.100425185042009 24.288623887502315 2.6554357316608503 25.37166099988739C2.6554357316608503 25.37166099988739 1.0000000000000004 29.40074151164802 1 32.10567082481627C1 34.81060013798453 1.9012426137621217 40 1.9012426137621217 40C5.0391504485432685 40 58.30305480921819 39.999999999999986 58.30305480921819 39.999999999999986C58.30305480921819 39.999999999999986 60.50157955400674 32.73176087777363 55.76482284857754 32.15222315544669C51.02806614314825 31.572685433119744 47.89501434138343 31.105670824816276 47.89501434138343 31.105670824816276L21.679992646828698 19.41888346032934C21.165423780954697 19.189486094577635 20.563016902233443 19.43024186516509 20.34829451643334 19.951105154500198L18.663213093007254 24.038695042870316C18.663213093007254 24.038695042870316 14.27821527920321 26.08463071358387 11.53668113938517 26.08463071358387C8.795146999567113 26.08463071358387 5.418277594775979 24.352252369694412 5.418277594775979 24.352252369694412Z"/>
        </g>
      </g>
      <g opacity="1">
        <path fill="rgb(236,198,163)" fill-opacity="1" opacity="1" fill-rule="evenodd" d="M129.99999999999994 0L78.25403763081067 124.22690916232216L27.395810637383434 229.25028973626775L39.39491244109535 229.25028973626772L170.6736877525537 0L129.99999999999994 0Z"/>
      </g>
      <g transform="translate(24, 199)" opacity="1">
        <g opacity="1">
          <path fill="rgb(228,228,228)" fill-opacity="1" opacity="1" fill-rule="evenodd" d="M5.418277594775979 24.352252369694412C4.376480105828986 23.817796578774708 3.100425185042009 24.288623887502315 2.6554357316608503 25.37166099988739C2.6554357316608503 25.37166099988739 1.0000000000000004 29.40074151164802 1 32.10567082481627C1 34.81060013798453 1.9012426137621217 40 1.9012426137621217 40C5.0391504485432685 40 58.30305480921819 39.999999999999986 58.30305480921819 39.999999999999986C58.30305480921819 39.999999999999986 60.50157955400674 32.73176087777363 55.76482284857754 32.15222315544669C51.02806614314825 31.572685433119744 47.89501434138343 31.105670824816276 47.89501434138343 31.105670824816276L21.679992646828698 19.41888346032934C21.165423780954697 19.189486094577635 20.563016902233443 19.43024186516509 20.34829451643334 19.951105154500198L18.663213093007254 24.038695042870316C18.663213093007254 24.038695042870316 14.27821527920321 26.08463071358387 11.53668113938517 26.08463071358387C8.795146999567113 26.08463071358387 5.418277594775979 24.352252369694412 5.418277594775979 24.352252369694412Z"/>
        </g>
      </g>
      <g opacity="1">
        <path fill="rgb(92,99,171)" fill-opacity="1" opacity="1" fill-rule="evenodd" d="M31.988548814272548 207.43288901946605L58.65068590694915 212.4328890194659C79.26577549884874 182.12487453014802 165.54076711514523 57.85183903955338 174.99999999999983 2.842170943040401e-14L115.64407309313702 2.842170943040401e-14C84.05488056796014 41.82102198967659 51.63898670644379 176.62352186198967 31.988548814272548 207.43288901946605Z"/>
      </g>
    </g>
    <g transform="translate(22, 82)" opacity="1">
      <g opacity="1">
        <path fill="rgb(236,198,163)" fill-opacity="1" opacity="1" fill-rule="evenodd" d="M198 77.6170883178711L234.23455810546875 61.70417404174805Q243.7557373046875 52.21644592285156 252.6226806640625 47.281951904296875C254.3902587890625 46.719207763671875 257.41009521484375 46.549198150634766 254.18817138671875 51.25516891479492C250.9662322998047 55.96113586425781 247.7888946533203 61.05601501464844 249.0762939453125 62.70529556274414C249.64002990722656 63.427494049072266 250.67198181152344 63.484405517578125 251.77772521972656 63.545387268066406C253.19715881347656 63.6236686706543 254.7381591796875 63.708656311035156 255.56634521484375 65.21627807617188C256.548583984375 67.00431823730469 250.2622833251953 69.14318084716797 236.70748901367188 71.63287353515625L209.5699462890625 92.43928527832031L198 77.6170883178711ZM51.50828170776367 82L72 86.06584167480469Q41.08812713623047 143.67364501953125 38.84503173828125 147.1302032470703C35.93118667602539 151.62034606933594 37.89522171020508 159.34852600097656 39.22700119018555 164.5888671875C39.43303298950195 165.3995819091797 39.62393569946289 166.1507568359375 39.77930450439453 166.82118225097656C36.36302185058594 167.61642456054688 35.18370056152344 165.62356567382812 33.94038391113281 163.5225830078125C32.53609085083008 161.14956665039062 31.05015754699707 158.6385955810547 26.167156219482422 159.8511962890625C24.280607223510742 160.31967163085938 22.45848846435547 160.95291137695312 20.67829132080078 161.57156372070312C14.529166221618652 163.7085418701172 8.880233764648438 165.6716766357422 2.8038783073425293 160.07073974609375C1.8405516147613525 159.1827850341797 1.1353508234024048 156.40728759765625 4.4198198318481445 154.98374938964844C12.602630615234375 151.43719482421875 24.69204330444336 144.7963409423828 26.652341842651367 142.2180938720703Q30.66217041015625 136.94424438476562 51.50828170776367 82Z"/>
      </g>
      <g transform="translate(177.5381495230003, 58.161767950232665) rotate(5.000001787820835) translate(-177.5381495230003, -58.161767950232665)" opacity="1">
        <path fill="rgb(219,39,33)" fill-opacity="1" opacity="1" fill-rule="evenodd" d="M123.2802468497049 9.877180267405759L131.76519837375335 7.646009590186347C152.12013543721196 24.205074714688003 163.60236639567506 67.26167184595437 176.6126695688376 71.95564633827998C188.91338480731434 76.39360929719665 205.20859326527454 69.63200965612225 224.50316367869084 60.73903215020931L231.79605219629568 73.83534282752504C215.4098260722218 95.00002450883996 178.29861165308824 114.91654465110776 161.8429402518501 106.83980882469963C135.53374225128923 93.92678711479805 125.04680374839774 40.50140803080941 123.2802468497049 9.877180267405759Z"/>
      </g>
      <g opacity="1">
        <path fill="rgb(221,227,233)" fill-opacity="1" opacity="1" fill-rule="evenodd" d="M89.99999999999994 113.99999999999991C89.99999999999994 113.99999999999991 142.00763380444732 113.9999999999998 166.51145070667104 113.99999999999997C170.0076338044473 114 169.34884477427943 108.95163710899371 168.8434503368546 106.40420552146833C163.01058773109054 77.00376628567058 140.2413042581468 45.311515477904706 140.24130425814684 3.4607302968085105L118.17180010451452 0C99.91748496667677 29.358406822398315 93.60482630085626 65.50454991929624 89.99999999999994 113.99999999999991Z"/>
      </g>
      <g opacity="1">
        <path fill="rgb(255,65,51)" fill-opacity="1" opacity="1" fill-rule="evenodd" d="M27 141.85882568359375Q42.49589157104492 45.75659942626953 116.74805450439453 0L125.48639678955078 0C125.48639678955078 0 155.20518493652344 101.305419921875 141.87228393554688 135L73 135C74.08963012695312 118.5634536743164 77.5833969116211 101.18120574951172 82.36875915527344 84.23316955566406Q58.97270584106445 126.43515014648438 43.037445068359375 145L27 141.85882568359375Z"/>
      </g>
    </g>
  </g>
</svg>